<svg width="100" height="25" viewBox="0 0 100 25" fill="none" xmlns="http://www.w3.org/2000/svg">
<g clip-path="url(#clip0_9712_1609)">
<path d="M42.5306 10.8127V17.4683H43.8262V10.773C43.8262 9.82761 44.3648 9.18523 45.5011 9.18523H48.5323V7.93854H45.5011C43.7277 7.93854 42.5306 9.1041 42.5306 10.8127Z" fill="white"/>
<path d="M97.9116 7.78625C96.7638 7.78625 95.8279 8.72831 95.8279 9.88559C95.8279 11.0445 96.7622 11.9866 97.9116 11.9866C99.0611 11.9866 99.9954 11.0445 99.9954 9.88559C99.9954 8.72831 99.0611 7.78625 97.9116 7.78625ZM97.9116 11.5561C96.9987 11.5561 96.2548 10.8061 96.2548 9.88559C96.2548 8.96506 96.9987 8.21506 97.9116 8.21506C98.8246 8.21506 99.5684 8.96506 99.5684 9.88559C99.5701 10.8078 98.8262 11.5561 97.9116 11.5561Z" fill="white"/>
<path d="M93.2416 9.14386C92.5437 8.31935 91.1874 7.81604 89.0347 7.81604C86.9017 7.81604 85.5043 8.2581 84.7671 9.16372C84.0495 10.0677 83.79 11.1141 83.79 12.7018C83.79 14.2896 84.0495 15.3359 84.7868 16.2415C85.524 17.1472 86.9411 17.5892 89.0741 17.5892C92.3253 17.5892 93.7408 16.4237 94.2794 14.7548H92.8442C92.4058 15.821 91.1496 16.3641 89.0758 16.3641C85.905 16.3641 85.1464 15.2184 85.107 13.3078H94.3007V12.7051C94.3007 12.0015 94.3007 11.619 94.1414 10.8955C94.0002 10.1505 93.7802 9.70677 93.2416 9.14386ZM85.1053 12.0809C85.2055 10.1703 85.8623 9.04452 89.0544 9.04452C91.7868 9.04452 92.9838 9.98988 92.9838 12.0809H85.1053Z" fill="white"/>
<path d="M35.6685 7.79785C34.1332 7.79785 32.8771 8.05944 31.9001 8.58262V9.97004C32.6981 9.42699 34.2728 9.04454 35.6899 9.04454C38.3221 9.04454 39.3188 9.74818 39.7178 11.3359H35.6899C35.1907 11.3359 35.0117 11.3558 34.4337 11.3757C34.1546 11.3955 33.9149 11.4154 33.7359 11.4568C33.3566 11.5164 32.7392 11.6571 32.3993 11.8392C31.5815 12.2813 30.9641 12.9452 30.9641 14.273C30.9641 16.023 31.8015 16.8459 33.0577 17.1886C33.9559 17.4303 34.593 17.47 35.6899 17.47H38.3024C40.217 17.47 41.1349 16.6455 41.1349 14.7349V12.8243C41.1349 11.2366 40.836 10.1306 40.038 9.225C39.2383 8.27964 37.7621 7.79785 35.6685 7.79785ZM39.836 13.1654V14.7747C39.836 15.3376 39.7966 15.5379 39.616 15.8409C39.437 16.1025 39.0183 16.2233 38.2991 16.2233H35.6866C32.7145 16.1422 32.2761 15.6604 32.2564 14.273C32.2564 13.3674 32.7145 12.9253 33.552 12.7449C34.171 12.6041 34.7277 12.5644 35.6866 12.5644H39.8344V13.1654H39.836Z" fill="white"/>
<path d="M56.4239 7.93854H53.8919C50.841 7.93854 49.5044 9.02463 49.5044 11.7796V13.6289C49.5044 16.364 50.8607 17.47 53.8919 17.47H57.9592C57.8804 19.0577 57.1021 19.5611 55.0085 19.5611H51.1399V20.8077H55.0085C55.5668 20.8077 55.8656 20.8077 56.5044 20.7067C57.1431 20.6058 57.5208 20.4452 58.0594 20.0428C58.7967 19.5197 59.2762 18.5743 59.2762 16.9667V10.7134C59.2762 8.78291 58.3977 7.93854 56.4239 7.93854ZM57.9789 16.2217H53.8903C52.6735 16.2217 51.8361 16.0412 51.4174 15.6587C50.9986 15.2763 50.7983 14.6339 50.7983 13.6885V11.7183C50.818 9.88887 51.2975 9.2647 53.8886 9.18523H56.4207C57.8361 9.18523 57.9757 9.62728 57.9757 10.6736V16.2217H57.9789Z" fill="white"/>
<path d="M81.0956 7.93858H76.9675C73.9166 7.93858 72.58 9.04454 72.58 11.7796V13.629C72.58 16.3839 73.9363 17.47 76.9675 17.47H79.5405C81.4749 17.47 82.3928 16.6257 82.3928 14.6952V4.60083H81.0972V7.93858H81.0956ZM81.0956 14.7349C81.0956 15.8608 80.8361 16.2233 79.5405 16.2233H76.9675C75.8312 16.2233 75.0134 16.0628 74.5537 15.72C74.0955 15.3773 73.8755 14.6952 73.8755 13.6886V11.7184C73.8755 10.6935 74.1153 10.0296 74.5734 9.68692C75.0315 9.34421 75.8295 9.18361 76.9658 9.18361H81.0939V14.7349H81.0956Z" fill="white"/>
<path d="M70.1251 9.14386C69.4272 8.31935 68.0709 7.81604 65.9165 7.81604C63.7819 7.81604 62.3862 8.2581 61.6489 9.16372C60.9313 10.0677 60.6719 11.1141 60.6719 12.7018C60.6719 14.2896 60.9313 15.3359 61.6686 16.2415C62.4059 17.1472 63.8229 17.5892 65.9559 17.5892C69.2072 17.5892 70.6226 16.4237 71.1612 14.7548H69.7261C69.2876 15.821 68.0315 16.3641 65.9576 16.3641C62.7868 16.3641 62.0282 15.2184 61.9888 13.3078H71.1826V12.7051C71.1826 12.0015 71.1825 11.619 71.0233 10.8955C70.8837 10.1505 70.6637 9.70677 70.1251 9.14386ZM61.9888 12.0809C62.089 10.1703 62.7458 9.04452 65.9379 9.04452C68.6702 9.04452 69.8673 9.98988 69.8673 12.0809H61.9888Z" fill="white"/>
<path d="M98.3451 10.071C98.2959 10.018 98.2335 9.97003 98.1596 9.92533C98.3107 9.90381 98.424 9.84917 98.5011 9.76473C98.5767 9.6803 98.6144 9.57268 98.6144 9.44189C98.6144 9.33924 98.5898 9.24818 98.5389 9.16871C98.488 9.08924 98.4223 9.03295 98.3386 9.00314C98.2548 8.97169 98.1218 8.95679 97.9379 8.95679H97.2056V10.6935H97.5537V9.96837H97.6243C97.7047 9.96837 97.7622 9.975 97.8 9.98825C97.8361 10.0015 97.8722 10.0247 97.9051 10.0611C97.9379 10.0959 97.9987 10.182 98.089 10.3161L98.3402 10.6935H98.7557L98.5455 10.3541C98.4601 10.2184 98.3944 10.124 98.3451 10.071ZM97.8098 9.69023H97.552V9.24983H97.823C97.9642 9.24983 98.0479 9.25149 98.0775 9.25646C98.1333 9.26639 98.1777 9.28791 98.2089 9.32434C98.2401 9.36076 98.2548 9.40712 98.2548 9.46507C98.2548 9.51805 98.2433 9.56109 98.2203 9.59586C98.1974 9.63063 98.1645 9.65546 98.1235 9.66871C98.0808 9.68361 97.9757 9.69023 97.8098 9.69023Z" fill="white"/>
<path d="M25.6029 5.79961C25.4403 5.6506 25.2548 5.53968 25.0545 5.44531C24.7408 5.29796 24.4075 5.20193 24.0692 5.12908C23.35 4.97511 22.6177 4.92378 21.8837 4.90226C21.7211 4.89729 21.5602 4.89729 21.3976 4.89729C21.4256 4.89729 21.4518 4.89564 21.4798 4.89564C21.4174 4.89564 21.355 4.89729 21.2926 4.89729C21.2022 4.89729 21.1119 4.89729 21.0233 4.89895C20.8673 4.9006 20.7113 4.90557 20.5553 4.91054C20.483 4.91385 20.4124 4.9155 20.3402 4.91881C20.1448 4.92875 19.9477 4.94034 19.7523 4.95689C19.7195 4.9602 19.6866 4.96186 19.6538 4.96352C19.4124 4.98504 19.171 5.00822 18.9297 5.03967C18.3796 5.10921 17.8377 5.21351 17.3057 5.37411C16.9083 5.49663 16.5257 5.65557 16.1743 5.86749C15.777 6.1059 15.4568 6.41219 15.2022 6.78802C15.0577 7.00159 14.9395 7.22676 14.841 7.46352C14.7999 7.5612 14.7589 7.65888 14.7228 7.75656C14.7228 7.75822 14.7211 7.75987 14.7211 7.76153C14.6308 7.80789 14.5372 7.81616 14.4453 7.81616H14.4042C14.3763 7.81616 14.3484 7.81451 14.3205 7.81451C13.0348 7.8261 11.749 7.83272 10.4633 7.84265C10.9724 5.66716 14.373 2.11087 16.3467 1.1208C16.4584 1.06451 16.5536 1.01319 16.6357 0.963517V0.965172C16.9625 0.783053 17.066 0.640668 17.0758 0.538019C17.0758 0.533052 17.0758 0.529741 17.0758 0.524774C17.0758 0.518151 17.0775 0.511529 17.0758 0.506562C17.0758 0.504906 17.0742 0.503251 17.0742 0.501595C17.0725 0.491661 17.0709 0.483385 17.0676 0.475107C17.066 0.47014 17.066 0.466829 17.0643 0.461862C17.061 0.455239 17.0577 0.450272 17.0545 0.44365C17.0495 0.435372 17.0463 0.428748 17.0413 0.422126C17.0413 0.42047 17.0397 0.420469 17.0397 0.418814C16.997 0.362522 16.933 0.334377 16.928 0.331066C16.9264 0.32941 16.9247 0.329412 16.9231 0.327756C16.9231 0.327756 16.9132 0.322788 16.8968 0.316166C16.8722 0.304576 16.8443 0.289676 16.8246 0.283053C16.818 0.281398 16.8131 0.279742 16.8098 0.278087C16.7901 0.274776 16.7687 0.26484 16.7523 0.258218C16.7211 0.248284 16.6965 0.241662 16.6653 0.233384C16.6111 0.220139 16.5536 0.208549 16.4978 0.19696C16.4568 0.188682 16.4157 0.180405 16.373 0.172127C16.2646 0.148948 16.1398 0.139014 16.0364 0.122457C15.5389 0.0446427 15.066 0.0115308 14.5307 0.00159704C14.0577 -0.0066811 13.5898 0.018152 13.1169 0.0545759C12.3418 0.112523 11.5766 0.233383 10.8246 0.42378C10.2564 0.566164 9.70799 0.738352 9.17597 0.935372C9.0364 0.986696 8.89847 1.04133 8.76218 1.09762C8.68172 1.13074 8.60454 1.1655 8.52573 1.19862C8.45348 1.23007 8.38123 1.25987 8.30898 1.29299C8.23016 1.32775 8.15298 1.36418 8.07581 1.4006C8.00356 1.43372 7.93295 1.46848 7.86235 1.50325C7.78681 1.53967 7.71128 1.57776 7.63738 1.61584C7.56349 1.65391 7.4896 1.69365 7.41571 1.73338C7.34675 1.76981 7.27778 1.80623 7.20881 1.84431C7.07745 1.91716 6.94773 1.99332 6.81801 2.07113C6.76054 2.1059 6.70471 2.14233 6.64724 2.17709C6.56514 2.22842 6.48304 2.27974 6.40258 2.33272C6.34182 2.37246 6.28106 2.41385 6.22031 2.45524C6.14478 2.50656 6.0676 2.55954 5.99371 2.61252C5.93459 2.65391 5.87712 2.6953 5.81801 2.73835C5.73755 2.79795 5.65873 2.85756 5.57827 2.91881C5.52737 2.95689 5.47811 2.99497 5.42721 3.03471C5.30241 3.13239 5.17926 3.23338 5.05775 3.33603C5.02983 3.35921 5.00356 3.38405 4.97729 3.40722C4.87876 3.49166 4.78188 3.57775 4.685 3.6655C4.64067 3.70524 4.59798 3.74663 4.55364 3.78802C4.47482 3.86252 4.39436 3.93703 4.31719 4.01484C4.27285 4.05789 4.22852 4.10093 4.18583 4.14564C4.10537 4.22676 4.02655 4.30954 3.94609 4.39232C3.90832 4.43206 3.87055 4.47014 3.83443 4.50987C3.71949 4.63239 3.60783 4.75822 3.49617 4.88735C1.31883 7.40226 0.244938 10.3162 0.210456 13.5877C0.207172 13.9619 0.236728 14.3344 0.266284 14.7069C0.315545 15.3476 0.417353 15.9817 0.565136 16.6042C1.13492 18.9701 2.27614 21.0463 3.99042 22.8278C4.70799 23.5744 5.50931 24.235 6.38287 24.8079C6.3878 24.8112 6.39272 24.8129 6.39765 24.8162C6.42885 24.836 6.46005 24.8559 6.49453 24.8741C7.36152 25.3261 6.84592 24.0231 6.84592 24.0231C5.25151 21.0662 6.64724 17.6738 6.64724 17.6738C6.69814 17.5562 6.75233 17.4403 6.80651 17.3244C6.82458 17.2864 6.84428 17.2483 6.86399 17.2085C6.90175 17.1324 6.93788 17.0579 6.97729 16.9834C7.00849 16.9238 7.04133 16.8658 7.07252 16.8062C7.10044 16.7549 7.12835 16.7019 7.15627 16.6506C7.19732 16.5761 7.24165 16.5032 7.28435 16.4304C7.30569 16.3956 7.3254 16.3609 7.3451 16.3261C7.39929 16.2367 7.45676 16.1489 7.51259 16.0612C7.52409 16.0446 7.53394 16.0264 7.54543 16.0099C7.60783 15.9138 7.67187 15.8211 7.73755 15.7284C7.74412 15.7201 7.74904 15.7102 7.75561 15.7019C8.47647 14.6854 9.36973 13.8029 10.4453 13.0612C10.4502 13.0579 10.4568 13.0529 10.4617 13.0496C10.4797 13.038 10.4962 13.0248 10.5126 13.0132C10.7671 12.8393 11.0298 12.6771 11.2958 12.5264C11.3172 12.5132 11.3402 12.5016 11.3615 12.49C12.1727 12.0364 13.0331 11.6787 13.9346 11.4023C14.6472 11.1854 15.3763 11.0248 16.1136 10.9056C16.7573 10.8029 17.4042 10.7301 18.0528 10.692C18.4666 10.6672 18.8853 10.6638 19.2991 10.6506C20.02 10.6258 20.7425 10.6191 21.4568 10.5347C22.0495 10.4635 22.6357 10.3642 23.2088 10.2019C23.5799 10.0943 23.9395 9.95358 24.2827 9.77312C24.8853 9.45524 25.3303 8.99331 25.6243 8.39563C25.7655 8.10424 25.8656 7.79961 25.9444 7.48835C26.0151 7.21186 26.0282 6.93371 26.0151 6.65391C26.0003 6.31285 25.8574 6.02974 25.6029 5.79961Z" fill="white"/>
<path d="M23.644 15.5661C23.6292 15.5677 23.6161 15.5694 23.6046 15.5743C22.6013 15.8939 21.5799 16.1041 20.534 16.225C20.02 16.2846 19.5044 16.3376 18.9888 16.3508C18.2253 16.3724 17.4617 16.3674 16.7015 16.4237C16.0463 16.4684 15.3993 16.5495 14.7606 16.6919C14.2959 16.7978 13.8427 16.9435 13.4174 17.1571C12.8804 17.4253 12.4568 17.8078 12.1481 18.3161C11.8969 18.7333 11.7327 19.1853 11.6374 19.6571C11.6276 19.7035 11.621 19.7482 11.6144 19.7945C11.6144 19.7945 11.6144 19.7929 11.6161 19.7929C11.5832 20.0114 11.5816 20.2349 11.6161 20.4535C11.6292 20.5445 11.6522 20.6373 11.6834 20.7233C11.777 21.018 11.979 21.23 12.2302 21.4021C12.4551 21.5561 12.7031 21.6637 12.9625 21.7515C13.4289 21.9104 13.9116 21.9949 14.396 22.0545C15.0184 22.129 15.6473 22.1555 16.0348 22.1472C16.5258 22.1439 16.9297 22.1373 17.2992 22.1207C17.3008 22.1207 17.3041 22.1207 17.3057 22.1207C17.4141 22.1157 17.5192 22.1091 17.6226 22.1025C17.6423 22.1008 17.662 22.0992 17.6817 22.0992C17.7852 22.0925 17.887 22.0843 17.9888 22.0743C18.5586 22.0214 19.1251 21.9402 19.6834 21.8094C20.1596 21.6985 20.621 21.5396 21.0611 21.3161C21.6867 20.9982 22.1514 20.5263 22.4519 19.9021C22.5438 19.7101 22.621 19.5098 22.6916 19.3061C22.7704 19.0793 22.8345 18.8492 22.9051 18.6174C23.1251 17.8856 23.3681 17.0694 23.5882 16.331C23.5898 16.3243 23.5931 16.3177 23.5947 16.3094C23.6013 16.2863 23.6095 16.2614 23.6161 16.2382C23.6538 16.1141 23.69 15.9882 23.708 15.9303C23.7343 15.8392 23.754 15.7498 23.777 15.6588C23.7868 15.5926 23.7228 15.5445 23.644 15.5661Z" fill="white"/>
</g>
<defs>
<clipPath id="clip0_9712_1609">
<rect width="100" height="25" fill="white"/>
</clipPath>
</defs>
</svg>
